<svg xmlns="http://www.w3.org/2000/svg" viewBox="0 0 800 800" preserveAspectRatio="xMidYMid slice">
  <defs>
    <linearGradient id="heroGradient" x1="0%" y1="0%" x2="100%" y2="100%">
      <stop offset="0%" stop-color="#F6E8D4" />
      <stop offset="100%" stop-color="#E0C9A6" />
    </linearGradient>
  </defs>
  <rect width="800" height="800" fill="url(#heroGradient)" rx="60" />
  <g transform="translate(100 160)" opacity="0.6">
    <path d="M0 400 C40 320 80 280 120 260 C160 240 200 240 240 260 C280 280 320 320 360 320 C400 320 440 280 480 240 C520 200 560 160 600 160 C640 160 680 200 720 280 L720 480 L0 480 Z" fill="#FFFFFF"/>
    <path d="M40 360 C80 320 120 280 170 280 C220 280 270 320 320 360 C370 400 420 440 470 440 C520 440 570 400 620 360 C670 320 720 280 760 280 L760 520 L0 520 Z" fill="#FFFFFF" opacity="0.5"/>
  </g>
  <g transform="translate(60 540)" fill="#A50C0A" opacity="0.9">
    <circle cx="80" cy="80" r="40" fill="#A50C0A" />
    <circle cx="160" cy="140" r="20" fill="#B05F47" />
    <circle cx="220" cy="80" r="28" fill="#B05F47" />
    <circle cx="260" cy="140" r="16" fill="#C97E65" />
    <circle cx="320" cy="100" r="22" fill="#D49474" />
    <circle cx="380" cy="140" r="18" fill="#E6B08F" />
  </g>
  <text x="50%" y="52%" text-anchor="middle" font-family="'Inter', 'Segoe UI', sans-serif" font-size="64" font-weight="700" fill="#A50C0A">
    Flerr Floristry
  </text>
  <text x="50%" y="60%" text-anchor="middle" font-family="'Inter', 'Segoe UI', sans-serif" font-size="24" fill="#9C7750">
    Красота цветочных композиций каждый день
  </text>
</svg>

